<svg xmlns="http://www.w3.org/2000/svg" viewBox="0 0 512 512">
  <defs>
    <linearGradient id="bg" x1="0%" y1="0%" x2="100%" y2="100%">
      <stop offset="0%" style="stop-color:#6366f1"/>
      <stop offset="100%" style="stop-color:#8b5cf6"/>
    </linearGradient>
  </defs>
  <rect width="512" height="512" rx="96" fill="url(#bg)"/>
  <g fill="white">
    <!-- Inbox/capture icon -->
    <path d="M156 180h200c11 0 20 9 20 20v112c0 11-9 20-20 20H156c-11 0-20-9-20-20V200c0-11 9-20 20-20z" fill-opacity="0.2"/>
    <path d="M136 312v40c0 22 18 40 40 40h160c22 0 40-18 40-40v-40H136z"/>
    <path d="M256 280l-60-60h40v-80h40v80h40l-60 60z"/>
    <!-- Checkmark accent -->
    <circle cx="380" cy="140" r="50" fill="#22c55e"/>
    <path d="M355 140l15 15 35-35" stroke="white" stroke-width="12" fill="none" stroke-linecap="round" stroke-linejoin="round"/>
  </g>
</svg>
